<?xml version="1.0" standalone="no"?>
<!DOCTYPE svg PUBLIC "-//W3C//DTD SVG 20010904//EN"
 "http://www.w3.org/TR/2001/REC-SVG-20010904/DTD/svg10.dtd">
<svg version="1.0" xmlns="http://www.w3.org/2000/svg"
 width="150.000000pt" height="150.000000pt" viewBox="0 0 150.000000 150.000000"
 preserveAspectRatio="xMidYMid meet">
<metadata>
Created by potrace 1.11, written by Peter Selinger 2001-2013
</metadata>
<g transform="translate(0.000000,150.000000) scale(0.100000,-0.100000)"
fill="#000000" stroke="none">
<path d="M650 1489 c-207 -28 -413 -159 -528 -337 -82 -127 -129 -318 -115
-466 3 -36 9 -69 12 -75 10 -16 174 6 238 32 79 31 111 11 105 -65 -1 -10 4
-18 11 -18 7 0 8 -3 2 -8 -5 -4 -11 -20 -12 -37 -3 -48 -35 -185 -42 -180 -10
5 -26 -7 -38 -29 -10 -18 -12 -18 -37 7 -23 23 -29 25 -41 13 -10 -10 -11 -16
-2 -25 8 -8 8 -14 -2 -23 -12 -11 -13 -9 -7 7 6 17 5 18 -6 7 -11 -11 -1 -24
53 -77 82 -77 178 -135 284 -171 113 -39 277 -45 393 -16 98 25 212 77 212 98
0 7 -5 14 -12 14 -6 0 -8 3 -4 7 4 5 14 0 21 -10 9 -13 15 -15 20 -6 4 6 2 15
-6 19 -10 7 -10 14 -1 35 7 14 12 28 12 30 0 9 -29 -7 -33 -18 -2 -7 -2 -3 0
8 7 36 8 40 16 53 6 8 1 12 -13 12 -11 0 -23 7 -26 15 -9 22 -39 18 -41 -5 -1
-16 2 -20 17 -15 13 4 22 -1 30 -15 6 -12 9 -24 6 -28 -3 -3 -6 0 -6 7 0 7 -5
9 -10 6 -5 -3 -10 -2 -10 3 0 6 -8 9 -17 8 -10 0 -20 9 -24 24 -6 23 -13 11
-10 -18 2 -16 -21 -15 -45 3 -17 13 -17 14 -1 15 9 0 26 9 37 20 11 11 27 20
35 20 9 0 15 9 15 23 -1 21 -1 21 -15 3 -8 -11 -18 -16 -22 -13 -3 4 -3 7 1 7
4 0 2 9 -4 20 -8 15 -7 27 5 51 9 17 14 34 10 37 -3 3 -9 -5 -12 -18 -6 -22
-7 -23 -15 -4 -6 14 -7 12 -3 -8 4 -22 2 -28 -12 -28 -14 0 -15 -2 -4 -9 10
-6 12 -19 7 -47 -6 -28 -10 -34 -17 -23 -7 11 -9 11 -9 -4 0 -10 -5 -15 -10
-12 -6 4 -7 12 -4 18 4 7 3 8 -2 4 -5 -5 -9 -20 -9 -33 -1 -18 6 -26 22 -30
13 -4 20 -10 17 -16 -3 -5 -12 -7 -19 -4 -15 5 -55 -20 -55 -36 0 -7 6 -6 15
2 12 10 15 10 15 -1 0 -8 -5 -21 -10 -29 -9 -13 -10 -13 -10 0 0 12 -2 12 -9
2 -11 -18 -21 30 -11 50 20 35 21 58 5 58 -11 0 -15 5 -12 14 3 8 -1 17 -10
20 -10 4 -13 2 -10 -8 3 -8 -7 -26 -24 -41 -21 -18 -28 -32 -24 -45 9 -29 -27
-45 -44 -18 -9 15 -19 18 -39 14 -19 -5 -23 -4 -12 3 8 6 12 12 9 16 -8 7 -49
-30 -49 -44 0 -7 -9 -3 -21 8 -11 10 -20 23 -20 28 1 11 24 11 32 0 4 -5 16 0
28 12 22 22 27 41 11 41 -5 0 -10 -7 -10 -15 0 -9 -9 -15 -22 -15 -21 0 -21 0
-2 15 18 14 18 14 -3 8 -13 -3 -23 -10 -23 -16 0 -6 -3 -8 -6 -4 -3 3 -15 -3
-27 -14 -23 -21 -42 -26 -31 -7 4 7 3 8 -4 4 -9 -5 -4 -17 13 -40 39 -51 30
-56 -15 -8 -22 23 -44 43 -50 43 -5 1 -14 3 -20 4 -5 1 -21 3 -35 4 -15 1 -25
7 -25 16 0 9 9 15 25 15 14 0 25 5 25 12 0 6 10 22 22 35 19 20 19 23 4 23 -9
0 -19 -7 -22 -15 -4 -8 -10 -15 -14 -15 -9 0 -23 39 -20 59 1 8 -4 11 -14 8
-19 -7 -32 9 -51 64 -18 51 -9 79 32 98 15 7 22 7 18 1 -3 -5 -2 -10 4 -10 5
0 11 4 13 9 2 4 14 12 27 16 16 5 21 4 17 -4 -4 -6 -3 -11 2 -11 13 0 24 47
17 71 -5 16 -10 18 -21 8 -8 -6 -14 -18 -14 -25 0 -22 -37 -17 -60 8 -25 27
-25 38 -2 39 15 0 15 1 -2 8 -15 6 -9 12 32 33 45 23 56 25 94 16 56 -12 283
7 643 57 61 8 133 15 160 16 28 0 61 4 75 8 22 6 24 11 22 51 -4 63 -36 178
-69 246 -39 81 -47 94 -55 94 -5 0 -8 6 -8 13 0 15 -104 125 -165 174 -130
106 -364 167 -545 142z m-258 -267 c20 -42 42 -89 47 -104 6 -16 17 -28 26
-28 23 0 55 60 55 103 0 25 5 40 15 44 9 3 18 4 20 2 14 -14 57 -195 60 -251
4 -64 3 -67 -31 -102 -19 -20 -47 -38 -62 -41 -15 -3 -39 -12 -54 -20 -28 -14
-46 -5 -32 16 3 6 8 42 11 80 4 57 2 73 -15 93 -19 25 -19 25 -40 6 -11 -11
-23 -29 -27 -40 -9 -30 -25 -21 -62 34 -28 41 -33 57 -33 108 0 33 5 69 12 81
24 47 59 97 66 97 4 -1 24 -35 44 -78z m80 -34 c-5 -20 -6 -20 -18 -3 -15 21
-10 37 10 29 8 -3 12 -14 8 -26z m-257 -121 c-20 -11 -29 -3 -21 19 5 13 9 14
22 3 14 -11 14 -13 -1 -22z m-85 -40 c12 -15 42 -30 85 -42 36 -9 68 -21 70
-26 3 -4 -7 -22 -23 -40 -28 -31 -30 -32 -53 -16 -29 21 -56 22 -75 2 -9 -8
-22 -15 -31 -15 -12 0 -15 8 -10 40 4 30 2 40 -9 40 -17 0 -17 3 0 45 18 41
22 42 46 12z m444 -213 c12 -5 13 -10 5 -25 -9 -17 -12 -18 -25 -4 -8 8 -12
19 -9 25 7 12 8 12 29 4z m56 -64 c0 -5 -2 -10 -4 -10 -3 0 -8 5 -11 10 -3 6
-1 10 4 10 6 0 11 -4 11 -10z m-195 -170 c3 -5 1 -10 -4 -10 -6 0 -11 5 -11
10 0 6 2 10 4 10 3 0 8 -4 11 -10z m458 -338 c-13 -2 -23 -11 -24 -20 0 -11
-2 -13 -6 -4 -7 19 16 42 35 34 14 -6 13 -7 -5 -10z m-453 -7 c0 -8 -7 -15
-16 -15 -14 0 -14 3 -4 15 7 8 14 15 16 15 2 0 4 -7 4 -15z m608 -20 c-2 -5 2
-10 7 -10 6 0 9 5 7 10 -2 6 2 5 8 -2 16 -15 6 -29 -30 -41 -24 -9 -30 -8 -30
3 0 7 6 15 13 18 9 3 9 7 -1 20 -12 14 -11 16 7 14 12 -1 20 -6 19 -12z m-530
-2 c-9 -2 -20 -13 -23 -24 -7 -20 -22 -24 -43 -10 -11 6 -10 10 4 15 13 5 15
9 7 14 -7 4 7 8 30 9 23 0 34 -2 25 -4z m52 -10 c0 -2 -7 -11 -15 -19 -13 -14
-15 -13 -15 10 0 18 4 24 15 20 8 -4 15 -8 15 -11z m-240 -14 c0 -14 -17 -10
-23 5 -4 10 -1 13 9 9 7 -3 14 -9 14 -14z m100 11 c0 -5 -2 -10 -4 -10 -3 0
-8 5 -11 10 -3 6 -1 10 4 10 6 0 11 -4 11 -10z m460 -35 c0 -3 -9 -1 -20 5
-11 6 -18 15 -15 21 6 9 35 -12 35 -26z m-360 15 c0 -5 -4 -10 -10 -10 -5 0
-10 5 -10 10 0 6 5 10 10 10 6 0 10 -4 10 -10z m560 -70 c0 -5 -5 -10 -11 -10
-5 0 -7 5 -4 10 3 6 8 10 11 10 2 0 4 -4 4 -10z"/>
<path d="M484 922 c-16 -11 -23 -37 -14 -53 7 -10 12 -6 20 15 12 33 10 49 -6
38z"/>
<path d="M1408 713 c7 -3 16 -2 19 1 4 3 -2 6 -13 5 -11 0 -14 -3 -6 -6z"/>
<path d="M1315 699 c-4 -6 -5 -12 -2 -15 2 -3 7 2 10 11 7 17 1 20 -8 4z"/>
<path d="M1055 657 c2 -22 21 -25 40 -6 7 7 3 8 -9 3 -13 -5 -17 -4 -13 3 4 6
1 13 -6 16 -9 3 -13 -2 -12 -16z"/>
<path d="M1136 664 c-4 -9 -4 -19 -1 -22 2 -3 7 3 11 12 4 9 4 19 1 22 -2 3
-7 -3 -11 -12z"/>
<path d="M920 660 c0 -5 5 -10 10 -10 6 0 10 5 10 10 0 6 -4 10 -10 10 -5 0
-10 -4 -10 -10z"/>
<path d="M800 646 c0 -8 4 -17 9 -20 5 -4 7 3 4 14 -6 23 -13 26 -13 6z"/>
<path d="M955 650 c-3 -6 1 -7 9 -4 18 7 21 14 7 14 -6 0 -13 -4 -16 -10z"/>
<path d="M996 611 c-3 -5 1 -11 9 -15 8 -3 15 -1 15 4 0 13 -18 22 -24 11z"/>
<path d="M1047 586 c-10 -14 -13 -26 -7 -26 5 0 10 5 10 11 0 6 6 9 13 6 8 -3
20 -1 28 4 11 7 11 9 -3 9 -9 0 -18 5 -20 11 -2 7 -12 0 -21 -15z"/>
<path d="M595 590 c-3 -5 -1 -10 4 -10 6 0 11 5 11 10 0 6 -2 10 -4 10 -3 0
-8 -4 -11 -10z"/>
<path d="M1453 575 c0 -8 4 -15 9 -15 4 0 8 7 8 15 0 8 -4 15 -8 15 -5 0 -9
-7 -9 -15z"/>
<path d="M1216 565 c-3 -8 -1 -15 4 -15 6 0 10 7 10 15 0 8 -2 15 -4 15 -2 0
-6 -7 -10 -15z"/>
<path d="M600 562 c0 -13 39 -32 45 -22 3 5 -3 14 -14 19 -23 13 -31 14 -31 3z"/>
<path d="M156 544 c-9 -24 -2 -26 12 -4 7 11 8 20 3 20 -5 0 -12 -7 -15 -16z"/>
<path d="M1415 540 c-3 -5 -1 -10 4 -10 6 0 11 5 11 10 0 6 -2 10 -4 10 -3 0
-8 -4 -11 -10z"/>
<path d="M40 529 c0 -5 5 -7 10 -4 6 3 10 8 10 11 0 2 -4 4 -10 4 -5 0 -10 -5
-10 -11z"/>
<path d="M101 531 c-8 -6 -9 -11 -3 -15 6 -3 14 -1 17 5 9 14 2 20 -14 10z"/>
<path d="M335 530 c3 -5 8 -10 11 -10 2 0 4 5 4 10 0 6 -5 10 -11 10 -5 0 -7
-4 -4 -10z"/>
<path d="M685 530 c-3 -6 1 -7 9 -4 18 7 21 14 7 14 -6 0 -13 -4 -16 -10z"/>
<path d="M510 519 c0 -5 5 -7 10 -4 6 3 10 8 10 11 0 2 -4 4 -10 4 -5 0 -10
-5 -10 -11z"/>
<path d="M1085 520 c-3 -5 -1 -10 4 -10 6 0 11 5 11 10 0 6 -2 10 -4 10 -3 0
-8 -4 -11 -10z"/>
<path d="M860 510 c0 -5 5 -10 11 -10 5 0 7 5 4 10 -3 6 -8 10 -11 10 -2 0 -4
-4 -4 -10z"/>
<path d="M950 510 c0 -5 5 -10 11 -10 5 0 7 5 4 10 -3 6 -8 10 -11 10 -2 0 -4
-4 -4 -10z"/>
<path d="M995 511 c-3 -7 0 -8 9 -5 9 3 16 1 16 -5 0 -6 6 -11 14 -11 8 0 17
-6 19 -12 4 -8 6 -7 6 3 1 9 -7 19 -16 23 -10 3 -23 8 -30 12 -6 3 -14 0 -18
-5z"/>
<path d="M1395 500 c-3 -5 1 -10 10 -10 9 0 13 5 10 10 -3 6 -8 10 -10 10 -2
0 -7 -4 -10 -10z"/>
<path d="M103 483 c-15 -10 -23 -25 -22 -42 1 -20 2 -22 6 -6 3 11 14 28 26
37 28 22 19 31 -10 11z"/>
<path d="M708 493 c-10 -2 -18 -9 -18 -14 0 -14 16 -11 30 6 7 8 11 14 9 14
-2 -1 -12 -3 -21 -6z"/>
<path d="M1220 490 c0 -5 5 -10 10 -10 6 0 10 5 10 10 0 6 -4 10 -10 10 -5 0
-10 -4 -10 -10z"/>
<path d="M1371 488 c-1 -10 6 -18 14 -18 8 0 15 -7 15 -15 0 -15 12 -20 23 -9
7 8 -17 34 -31 34 -6 0 -13 6 -15 13 -3 7 -6 5 -6 -5z"/>
<path d="M1120 482 c0 -4 10 -13 23 -21 22 -14 22 -14 3 8 -20 22 -26 25 -26
13z"/>
<path d="M1251 473 c-1 -12 -7 -23 -13 -26 -7 -2 -9 -8 -5 -13 4 -5 12 -2 17
6 8 12 12 11 27 -10 10 -13 20 -31 23 -38 5 -11 8 -11 19 2 11 14 11 16 -3 16
-9 0 -16 5 -16 11 0 7 -8 19 -18 28 -11 9 -21 23 -25 31 -4 10 -6 8 -6 -7z"/>
<path d="M270 472 c0 -6 9 -12 20 -15 11 -3 20 -3 20 -1 0 2 -9 8 -20 14 -11
6 -20 7 -20 2z"/>
<path d="M631 464 c0 -11 3 -14 6 -6 3 7 2 16 -1 19 -3 4 -6 -2 -5 -13z"/>
<path d="M1301 471 c-7 -5 -9 -11 -5 -14 5 -3 15 1 22 9 14 16 5 18 -17 5z"/>
<path d="M100 451 c0 -6 11 -17 25 -23 21 -9 29 -9 42 5 15 15 14 16 -13 13
-16 -1 -35 2 -41 7 -9 6 -13 6 -13 -2z"/>
<path d="M200 456 c0 -2 9 -6 20 -9 11 -3 20 -1 20 4 0 5 -9 9 -20 9 -11 0
-20 -2 -20 -4z"/>
<path d="M316 445 c-3 -9 -10 -13 -16 -10 -6 3 -7 -1 -4 -10 6 -14 9 -13 21 5
8 12 13 23 10 26 -2 3 -7 -2 -11 -11z"/>
<path d="M580 449 c0 -5 5 -7 10 -4 6 3 10 8 10 11 0 2 -4 4 -10 4 -5 0 -10
-5 -10 -11z"/>
<path d="M950 451 c0 -6 4 -13 10 -16 6 -3 7 1 4 9 -7 18 -14 21 -14 7z"/>
<path d="M1175 443 c-8 -23 -6 -24 15 -13 11 6 20 14 20 19 0 13 -29 8 -35 -6z"/>
<path d="M984 433 c-9 -14 -8 -21 3 -32 18 -17 21 -13 14 22 -5 25 -7 26 -17
10z"/>
<path d="M645 430 c3 -5 8 -10 11 -10 2 0 4 5 4 10 0 6 -5 10 -11 10 -5 0 -7
-4 -4 -10z"/>
<path d="M1100 415 c-8 -9 -8 -15 -2 -15 12 0 26 19 19 26 -2 2 -10 -2 -17
-11z"/>
<path d="M1250 419 c0 -6 7 -17 15 -25 16 -16 19 -7 9 20 -7 18 -24 22 -24 5z"/>
<path d="M900 404 c0 -8 -4 -12 -10 -9 -5 3 -10 3 -10 -2 0 -4 -12 -9 -27 -10
-18 -1 -22 2 -12 7 7 5 11 11 8 14 -8 8 -23 -7 -43 -42 -14 -27 -16 -36 -6
-45 10 -9 11 -9 6 0 -10 19 16 53 42 53 14 0 26 -8 31 -22 9 -23 9 -23 16 5 4
15 11 27 16 27 5 0 9 9 9 20 0 11 -4 20 -10 20 -5 0 -10 -7 -10 -16z"/>
<path d="M1220 410 c0 -5 5 -10 10 -10 6 0 10 5 10 10 0 6 -4 10 -10 10 -5 0
-10 -4 -10 -10z"/>
<path d="M510 401 c0 -6 5 -13 11 -17 8 -4 8 -8 0 -13 -5 -4 -7 -17 -4 -30 6
-22 7 -22 19 -7 9 13 9 24 1 46 -11 29 -27 41 -27 21z"/>
<path d="M1357 404 c-4 -4 -7 -14 -7 -23 0 -11 3 -12 11 -4 6 6 10 16 7 23 -2
6 -7 8 -11 4z"/>
<path d="M207 387 c-8 -6 -6 -7 5 -3 13 4 17 0 15 -16 -1 -11 4 -23 12 -26 9
-3 11 1 7 16 -5 14 -1 24 11 31 15 9 14 10 -10 9 -15 -2 -33 -6 -40 -11z"/>
<path d="M163 374 c-3 -9 -13 -14 -24 -11 -22 6 -23 -1 -5 -25 7 -10 16 -15
19 -11 4 3 7 -1 7 -10 0 -23 12 -21 28 3 10 17 10 20 -3 20 -18 0 -20 16 -2
23 9 4 9 6 -1 6 -7 1 -10 6 -7 11 3 6 4 10 0 10 -3 0 -8 -7 -12 -16z"/>
<path d="M775 381 c-3 -5 -1 -12 5 -16 5 -3 10 1 10 9 0 18 -6 21 -15 7z"/>
<path d="M1177 370 c6 -21 18 -26 28 -11 3 6 -3 15 -14 20 -16 9 -18 8 -14 -9z"/>
<path d="M1227 370 c3 -11 13 -20 22 -20 13 0 13 2 2 9 -7 5 -10 14 -7 20 4 6
1 11 -7 11 -10 0 -13 -7 -10 -20z"/>
<path d="M575 370 c3 -5 8 -10 11 -10 2 0 4 5 4 10 0 6 -5 10 -11 10 -5 0 -7
-4 -4 -10z"/>
<path d="M1065 370 c-16 -7 -17 -9 -3 -9 9 -1 20 4 23 9 7 11 7 11 -20 0z"/>
<path d="M1099 375 c-9 -54 -7 -65 12 -65 11 0 27 7 35 15 14 13 13 15 -6 15
-12 0 -24 9 -30 23 -5 12 -10 18 -11 12z"/>
<path d="M981 351 c-7 -5 -26 -7 -41 -5 -16 2 -32 -2 -36 -8 -5 -7 -2 -9 8 -5
9 3 21 0 27 -6 8 -8 11 -8 11 2 0 10 3 11 14 2 10 -9 16 -8 26 4 15 18 10 27
-9 16z"/>
<path d="M1128 353 c7 -3 16 -2 19 1 4 3 -2 6 -13 5 -11 0 -14 -3 -6 -6z"/>
<path d="M1280 345 c-10 -12 -10 -15 3 -15 8 0 17 7 21 15 3 8 2 15 -3 15 -5
0 -14 -7 -21 -15z"/>
<path d="M1328 353 c7 -3 16 -2 19 1 4 3 -2 6 -13 5 -11 0 -14 -3 -6 -6z"/>
<path d="M760 340 c0 -5 5 -10 11 -10 5 0 7 5 4 10 -3 6 -8 10 -11 10 -2 0 -4
-4 -4 -10z"/>
<path d="M830 342 c0 -5 9 -17 21 -28 21 -19 21 -19 8 9 -12 26 -29 37 -29 19z"/>
<path d="M1207 327 c-3 -7 4 -19 14 -25 29 -18 23 -33 -7 -17 -36 19 -55 10
-44 -20 7 -19 5 -25 -8 -28 -12 -3 -11 -5 5 -6 16 -1 21 -6 17 -16 -5 -11 -2
-13 10 -9 9 3 16 11 16 16 0 6 14 8 30 6 21 -3 30 0 30 9 0 8 4 12 9 9 11 -7
36 22 28 31 -4 3 -13 0 -22 -7 -12 -10 -15 -9 -17 6 0 11 -2 24 -3 29 -2 6 -3
17 -4 25 -1 12 -4 12 -15 -2 -16 -22 -27 -23 -20 -3 4 8 2 15 -4 15 -5 0 -12
-6 -15 -13z m-3 -59 c-3 -4 -9 -8 -15 -8 -5 0 -9 4 -9 8 0 5 7 9 15 9 8 0 12
-4 9 -9z"/>
<path d="M1323 305 c0 -11 4 -12 14 -4 7 6 13 13 13 15 0 2 -6 4 -13 4 -8 0
-14 -7 -14 -15z"/>
<path d="M560 300 c0 -6 7 -10 15 -10 8 0 15 2 15 4 0 2 -7 6 -15 10 -8 3 -15
1 -15 -4z"/>
<path d="M814 265 c4 -15 2 -25 -4 -25 -6 0 -8 5 -5 10 8 12 -5 13 -23 1 -11
-7 -9 -13 9 -30 12 -11 26 -21 30 -21 9 0 18 61 12 78 -9 23 -25 12 -19 -13z"/>
<path d="M840 280 c0 -5 4 -10 9 -10 6 0 13 5 16 10 3 6 -1 10 -9 10 -9 0 -16
-4 -16 -10z"/>
<path d="M581 249 c-13 -5 -22 -12 -19 -15 8 -8 58 7 58 17 0 11 -8 11 -39 -2z"/>
<path d="M1220 203 c-33 -6 -41 -15 -30 -33 7 -11 10 -11 10 -2 0 7 4 11 9 8
4 -3 16 3 26 14 10 11 16 19 14 19 -2 -1 -15 -4 -29 -6z"/>
</g>
</svg>
